<?xml version="1.0" encoding="utf-8"?>
<!-- Generator: Adobe Illustrator 19.0.1, SVG Export Plug-In . SVG Version: 6.00 Build 0)  -->
<svg version="1.1" id="Layer_1" xmlns="http://www.w3.org/2000/svg" xmlns:xlink="http://www.w3.org/1999/xlink" x="0px" y="0px"
	 viewBox="-300 258.3 240 80" style="enable-background:new -300 258.3 240 80;" xml:space="preserve">
<style type="text/css">
	.st0{fill:#FFFFFF;}
</style>
<path class="st0" d="M-258.8,331.6c-0.1-0.4-3.7-14.6-3.7-14.6c-0.1-0.6-0.6-1.5-1.6-1.1c-14.3,4.8-14.3,4.8-14.3,4.8
	c-15.4,3.9-17.7-7.5-17.9-8.1c-0.2-0.5-2.9-14.4-3-14.9c-0.9-6,3.6-11.1,10.4-12.2c0.4-0.1,17.6-2.3,17.8-2.3c0.3,0,0.5-0.5,0.4-1.1
	c-0.2-1-2.9-11.7-3-12.2l0,0c-0.1-0.3-3-11.1,7.7-10.9c0.2,0,8.2,0.7,11.9,1.1c6.1,0.7,7.2,8.5,7.3,8.8c0,0,3,10.7,3,10.8
	c0,0.1,0.2,0.3,0.5,0.3c7.8-0.9,7.8-0.9,7.9-0.9c7.3-0.8,9.1,6.8,9.3,7.5c0.2,0.7-0.1-0.4,1.7,6c1.8,6.4,1,9.6-3.5,11.1
	c-0.3,0.1-7.9,2.7-8.2,2.8c-0.6,0.2-0.2,0.7-0.1,1.2c0.3,1.1,2.9,10.5,3,11l0,0c0.1,0.3,3,9.3-4.4,14c-0.3,0.2-7.9,4.2-8.3,4.4
	C-252,340.3-257.8,336.2-258.8,331.6z M-255.5,314.7l3.3,13.2c1.2,4.6,5.2,3.9,6.3,3.3l6.4-3.6c4.5-2.5,2.5-7.8,2.5-7.8l-3-11.2
	c-1.6-5.9,2.5-7.8,3.3-8l7.3-2.3c0.1,0,2.5-1.1,1.6-4.8l-2.1-7.2c-0.1-0.2-0.6-2.9-3.7-2.5c-0.9,0.1-7.5,1-7.5,1
	c-5.1,0.6-6-3.5-6.3-4.3c-0.1-0.4-3.2-11.5-3.2-11.5c-0.6-2-1.3-4.1-5.9-4.5c0,0-7.7-0.4-7.8-0.4c-0.8,0-3.8,1.2-2.9,4.9l3,11.9
	c0.3,1.5,1.1,7-5.7,7.9c0,0-15.4,2.2-15.6,2.2c-7.2,1.5-5.2,7-5,7.7l2.3,10.3c0.1,0.2,1.3,7.1,9.5,5l14.3-4.4
	C-257.7,307.7-255.7,313.8-255.5,314.7z M-204.9,276.9c9.3,0,14.7,3.9,14.7,13.6c0,9.7-5.3,13.6-14.7,13.6
	c-9.3,0-14.7-3.9-14.7-13.6C-219.6,280.9-214.2,276.9-204.9,276.9z M-212.7,290.6c0,5.6,2.2,8.7,7.8,8.7s7.8-3.1,7.8-8.7
	c0-5.6-2.2-8.7-7.8-8.7S-212.7,285-212.7,290.6z M-167.7,292.6h-12.5v9.4c0,0.9-0.8,1.7-1.7,1.7h-3.4c-1,0-1.8-0.8-1.8-1.7v-22.8
	c0-1,0.8-1.7,1.8-1.7h3.4c0.9,0,1.7,0.7,1.7,1.7v8.2h12.5v-8.2c0-1,0.8-1.7,1.7-1.7h3.4c1,0,1.8,0.7,1.8,1.7v22.7
	c0,0.9-0.8,1.7-1.8,1.7h-3.4c-0.9,0-1.7-0.7-1.7-1.7V292.6z M-141.6,303.6c-0.9,0-1.9-0.7-2.2-1.6l-6.4-17.9v17.8
	c0,1-0.7,1.8-1.7,1.8h-3.3c-1,0-1.7-0.8-1.7-1.8v-22.7c0-1,0.7-1.8,1.7-1.8h7.4c1,0,1.9,0.8,2.2,1.7l5.4,15.6l5.4-15.6
	c0.3-0.9,1.2-1.7,2.2-1.7h7.4c0.9,0,1.7,0.8,1.7,1.8v22.6c0,1-0.7,1.8-1.7,1.8h-3.3c-1,0-1.7-0.8-1.7-1.8v-17.7l-6.4,17.9
	c-0.3,0.9-1.3,1.6-2.2,1.6C-138.8,303.6-141.6,303.6-141.6,303.6z M-95.2,279.2v1.7c0,1-0.8,1.7-1.7,1.7h-15.9v5.3h13.7
	c0.9,0,1.7,0.8,1.7,1.7v1.7c0,0.9-0.8,1.7-1.7,1.7h-13.7v5.4H-97c0.9,0,1.7,0.7,1.7,1.7v1.8c0,0.9-0.7,1.7-1.7,1.7h-21
	c-1,0-1.7-0.8-1.7-1.8v-22.6c0-0.9,0.8-1.7,1.7-1.7h21C-96,277.5-95.2,278.2-95.2,279.2z M-61.7,298.5h-1.8v-19.3
	c0-0.9-0.8-1.7-1.7-1.7h-9.9c-5.3,0-10.4,1.3-11.8,7.2l-3.4,13.8h-1.4c-0.9,0-1.7,0.7-1.7,1.7v1.8c0,0.9,0.8,1.7,1.7,1.7h9.1h17.4
	h3.5c1,0,1.7-0.8,1.7-1.7v-1.8C-60,299.2-60.7,298.5-61.7,298.5z M-77.5,298.5h-5.8l3.1-12.2c0.5-2.2,2.1-3.6,4.4-3.6h5.5v15.8
	H-77.5z"/>
</svg>
