<?xml version="1.0" encoding="utf-8"?>
<!-- Generator: Adobe Illustrator 28.0.0, SVG Export Plug-In . SVG Version: 6.00 Build 0)  -->
<svg version="1.1" id="Layer_1" xmlns="http://www.w3.org/2000/svg" xmlns:xlink="http://www.w3.org/1999/xlink" x="0px" y="0px"
	 viewBox="0 0 240 80" style="enable-background:new 0 0 240 80;" xml:space="preserve">
<style type="text/css">
	.st0{fill:#0085FF;}
</style>
<path class="st0" d="M41.2,73.3c-0.1-0.4-3.7-14.6-3.7-14.6c-0.1-0.6-0.6-1.5-1.6-1.1c-14.3,4.8-14.3,4.8-14.3,4.8
	C6.2,66.3,3.9,54.9,3.7,54.3c-0.2-0.5-2.9-14.4-3-14.9c-0.9-6,3.6-11.1,10.4-12.2c0.4-0.1,17.6-2.3,17.8-2.3c0.3,0,0.5-0.5,0.4-1.1
	c-0.2-1-2.9-11.7-3-12.2l0,0c-0.1-0.3-3-11.1,7.7-10.9c0.2,0,8.2,0.7,11.9,1.1c6.1,0.7,7.2,8.5,7.3,8.8c0,0,3,10.7,3,10.8
	c0,0.1,0.2,0.3,0.5,0.3c7.8-0.9,7.8-0.9,7.9-0.9c7.3-0.8,9.1,6.8,9.3,7.5s-0.1-0.4,1.7,6s1,9.6-3.5,11.1c-0.3,0.1-7.9,2.7-8.2,2.8
	c-0.6,0.2-0.2,0.7-0.1,1.2c0.3,1.1,2.9,10.5,3,11l0,0c0.1,0.3,3,9.3-4.4,14c-0.3,0.2-7.9,4.2-8.3,4.4C48,82,42.2,77.9,41.2,73.3z
	 M44.5,56.4l3.3,13.2c1.2,4.6,5.2,3.9,6.3,3.3l6.4-3.6c4.5-2.5,2.5-7.8,2.5-7.8l-3-11.2c-1.6-5.9,2.5-7.8,3.3-8l7.3-2.3
	c0.1,0,2.5-1.1,1.6-4.8L70.1,28c-0.1-0.2-0.6-2.9-3.7-2.5c-0.9,0.1-7.5,1-7.5,1c-5.1,0.6-6-3.5-6.3-4.3c-0.1-0.4-3.2-11.5-3.2-11.5
	c-0.6-2-1.3-4.1-5.9-4.5c0,0-7.7-0.4-7.8-0.4c-0.8,0-3.8,1.2-2.9,4.9l3,11.9c0.3,1.5,1.1,7-5.7,7.9c0,0-15.4,2.2-15.6,2.2
	c-7.2,1.5-5.2,7-5,7.7l2.3,10.3c0.1,0.2,1.3,7.1,9.5,5l14.3-4.4C42.3,49.4,44.3,55.5,44.5,56.4z M95.1,18.6
	c9.3,0,14.7,3.9,14.7,13.6s-5.3,13.6-14.7,13.6c-9.3,0-14.7-3.9-14.7-13.6C80.4,22.6,85.8,18.6,95.1,18.6z M87.3,32.3
	c0,5.6,2.2,8.7,7.8,8.7s7.8-3.1,7.8-8.7s-2.2-8.7-7.8-8.7S87.3,26.7,87.3,32.3z M132.3,34.3h-12.5v9.4c0,0.9-0.8,1.7-1.7,1.7h-3.4
	c-1,0-1.8-0.8-1.8-1.7V20.9c0-1,0.8-1.7,1.8-1.7h3.4c0.9,0,1.7,0.7,1.7,1.7v8.2h12.5v-8.2c0-1,0.8-1.7,1.7-1.7h3.4
	c1,0,1.8,0.7,1.8,1.7v22.7c0,0.9-0.8,1.7-1.8,1.7H134c-0.9,0-1.7-0.7-1.7-1.7V34.3z M158.4,45.3c-0.9,0-1.9-0.7-2.2-1.6l-6.4-17.9
	v17.8c0,1-0.7,1.8-1.7,1.8h-3.3c-1,0-1.7-0.8-1.7-1.8V20.9c0-1,0.7-1.8,1.7-1.8h7.4c1,0,1.9,0.8,2.2,1.7l5.4,15.6l5.4-15.6
	c0.3-0.9,1.2-1.7,2.2-1.7h7.4c0.9,0,1.7,0.8,1.7,1.8v22.6c0,1-0.7,1.8-1.7,1.8h-3.3c-1,0-1.7-0.8-1.7-1.8V25.8l-6.4,17.9
	c-0.3,0.9-1.3,1.6-2.2,1.6C161.2,45.3,158.4,45.3,158.4,45.3z M204.8,20.9v1.7c0,1-0.8,1.7-1.7,1.7h-15.9v5.3h13.7
	c0.9,0,1.7,0.8,1.7,1.7V33c0,0.9-0.8,1.7-1.7,1.7h-13.7v5.4H203c0.9,0,1.7,0.7,1.7,1.7v1.8c0,0.9-0.7,1.7-1.7,1.7h-21
	c-1,0-1.7-0.8-1.7-1.8V20.9c0-0.9,0.8-1.7,1.7-1.7h21C204,19.2,204.8,19.9,204.8,20.9z M238.3,40.2h-1.8V20.9c0-0.9-0.8-1.7-1.7-1.7
	h-9.9c-5.3,0-10.4,1.3-11.8,7.2l-3.4,13.8h-1.4c-0.9,0-1.7,0.7-1.7,1.7v1.8c0,0.9,0.8,1.7,1.7,1.7h9.1h17.4h3.5c1,0,1.7-0.8,1.7-1.7
	v-1.8C240,40.9,239.3,40.2,238.3,40.2z M222.5,40.2h-5.8l3.1-12.2c0.5-2.2,2.1-3.6,4.4-3.6h5.5v15.8L222.5,40.2L222.5,40.2z"/>
</svg>
