<?xml version="1.0" encoding="utf-8"?>
<!-- Generator: Adobe Illustrator 28.1.0, SVG Export Plug-In . SVG Version: 6.00 Build 0)  -->
<svg version="1.1" id="Layer_1" xmlns="http://www.w3.org/2000/svg" xmlns:xlink="http://www.w3.org/1999/xlink" x="0px" y="0px"
	 viewBox="0 0 48 48" style="enable-background:new 0 0 48 48;" xml:space="preserve">
<path d="M38,15.1h-3.4v-2.9c0-2.6-2.1-4.8-4.8-4.8H19.6c-2.6,0-4.8,2.1-4.8,4.8v2.9h-3.4c-3.7,0-6.7,3-6.7,6.7v13.8
	c0,3.7,3,6.7,6.7,6.7H38c3.7,0,6.7-3,6.7-6.7V21.8C44.7,18.1,41.7,15.1,38,15.1z M18.9,12.1c0-0.4,0.3-0.8,0.8-0.8h10.2
	c0.4,0,0.8,0.3,0.8,0.8v2.9H18.9V12.1z M33.2,31H27v6.2h-4.7V31h-6.2v-4.7h6.2v-6.2H27v6.2h6.2V31z"/>
</svg>
