<svg id="Layer_1" enable-background="new 0 0 512.007 512.007" height="512" viewBox="0 0 512.007 512.007" width="512" xmlns="http://www.w3.org/2000/svg"><g><path d="m503.159 206.318c7.904-3.952 11.107-13.563 7.155-21.466-3.95-7.903-13.561-11.105-21.466-7.156l-6.949 3.475c-10.525-11.238-23.56-20.445-38.706-26.653-27.362-11.215-63.464-13.655-96.571-6.527-30.451 6.556-53.92 20.138-67.944 38.965-7.343-1.957-14.926-2.948-22.674-2.948s-15.331.991-22.674 2.948c-14.024-18.827-37.493-32.409-67.944-38.965-33.107-7.128-69.208-4.688-96.571 6.527-15.146 6.208-28.181 15.415-38.706 26.653l-6.949-3.475c-7.903-3.953-17.515-.747-21.466 7.156-3.952 7.903-.749 17.514 7.155 21.466l2.837 1.418c-13.696 27.583-15.946 60.699-3.402 91.377 11.206 27.406 32.403 48.804 59.688 60.251 13.787 5.785 28.293 8.678 42.805 8.678 14.21 0 28.426-2.775 41.974-8.328 27.359-11.214 54.803-34.817 73.41-63.138 18.178-27.668 25.192-55.459 20.425-79.776 3.086-.521 6.229-.793 9.42-.793s6.334.273 9.42.793c-4.767 24.316 2.247 52.107 20.425 79.776 18.607 28.321 46.051 51.924 73.41 63.138 13.549 5.553 27.762 8.328 41.974 8.328 14.51 0 29.02-2.895 42.805-8.678 27.284-11.447 48.481-32.845 59.688-60.251 12.544-30.678 10.293-63.794-3.402-91.377zm-400.654 3.65c-16.704-.101-30.387 13.424-30.502 30.149-.061 8.836-7.274 15.95-16.109 15.889-2.142-.015-4.182-.449-6.044-1.225-5.82-2.427-9.892-8.189-9.846-14.884.236-34.355 28.36-62.135 62.693-61.928 8.837.054 15.957 7.259 15.904 16.096-.053 8.836-7.26 15.956-16.096 15.903zm272.185-6.922c-9.718-.47-22.483 3.226-32.522 9.417-9.459 5.834-15.285 13.063-15.584 19.337-.319 6.688-4.699 12.22-10.641 14.326-1.901.674-3.962.997-6.102.895-8.827-.42-15.641-7.916-15.22-16.743.826-17.332 11.747-33.331 30.751-45.052 15.635-9.641 34.65-14.928 50.869-14.143 8.825.428 15.634 7.929 15.206 16.756-.428 8.826-7.93 15.634-16.757 15.207z"/></g></svg>