<?xml version="1.0" encoding="utf-8"?>
<!-- Generator: Adobe Illustrator 28.1.0, SVG Export Plug-In . SVG Version: 6.00 Build 0)  -->
<svg version="1.1" id="Layer_1" xmlns="http://www.w3.org/2000/svg" xmlns:xlink="http://www.w3.org/1999/xlink" x="0px" y="0px"
	 viewBox="0 0 800 800" style="enable-background:new 0 0 800 800;" xml:space="preserve">
<path d="M730.9,92.4c0,0,73.9-28.8,67.8,41.2c-2.1,28.8-20.5,129.7-34.9,238.8l-49.3,323.2c0,0-4.1,47.3-41.1,55.6
	c-37,8.2-92.4-28.8-102.7-37.1c-8.2-6.2-154-98.8-205.3-144.1c-14.4-12.4-30.8-37.1,2.1-65.9l215.6-205.9
	c24.6-24.7,49.3-82.3-53.4-12.4L242.2,481.5c0,0-32.9,20.6-94.4,2.1L14.3,442.3c0,0-49.3-30.9,34.9-61.8
	C254.6,283.8,507.1,185,730.9,92.4z"/>
</svg>
